inDegrees=no
num_controls=7
num_derivatives=13
num_iterations=87
num_multipliers=7
num_parameters=0
num_slacks=7
num_states=26
objective=0.346832
objective_accelerations=0.011076
objective_balance=0.000827
objective_effort=0.010865
objective_height=0.322047
objective_ligament=0.002017
solver_duration=878.264258
status=Solve_Succeeded
success=true
DataType=double
version=3
OpenSimVersion=4.5
endheader
time	/jointset/ground_pelvis/pelvis_tilt/value	/jointset/ground_pelvis/pelvis_tx/value	/jointset/ground_pelvis/pelvis_ty/value	/jointset/hip_r/hip_flexion_r/value	/jointset/hip_r/hip_adduction_r/value	/jointset/hip_r/hip_rotation_r/value	/jointset/back/lumbar_extension/value	/jointset/patellofemoral_r/patellar_flexion_r/value	/jointset/knee_r/knee_flexion_r/value	/jointset/knee_r/knee_adduction_r/value	/jointset/knee_r/knee_rotation_r/value	/jointset/ankle_r/ankle_angle_r/value	/jointset/subtalar_r/subtalar_angle_r/value	/jointset/ground_pelvis/pelvis_tilt/speed	/jointset/ground_pelvis/pelvis_tx/speed	/jointset/ground_pelvis/pelvis_ty/speed	/jointset/hip_r/hip_flexion_r/speed	/jointset/hip_r/hip_adduction_r/speed	/jointset/hip_r/hip_rotation_r/speed	/jointset/back/lumbar_extension/speed	/jointset/patellofemoral_r/patellar_flexion_r/speed	/jointset/knee_r/knee_flexion_r/speed	/jointset/knee_r/knee_adduction_r/speed	/jointset/knee_r/knee_rotation_r/speed	/jointset/ankle_r/ankle_angle_r/speed	/jointset/subtalar_r/subtalar_angle_r/speed	/forceset/tau_hip_flexion_r	/forceset/tau_hip_adduction_r	/forceset/tau_hip_rotation_r	/forceset/tau_knee_flexion_r	/forceset/tau_ankle_angle_r	/forceset/tau_subtalar_angle_r	/forceset/tau_lumbar_extension	lambda_cid13_p0	lambda_cid14_p0	lambda_cid14_p1	lambda_cid14_p2	lambda_cid14_p3	lambda_cid14_p4	lambda_cid14_p5	/jointset/ground_pelvis/pelvis_tilt/accel	/jointset/ground_pelvis/pelvis_tx/accel	/jointset/ground_pelvis/pelvis_ty/accel	/jointset/hip_r/hip_flexion_r/accel	/jointset/hip_r/hip_adduction_r/accel	/jointset/hip_r/hip_rotation_r/accel	/jointset/back/lumbar_extension/accel	/jointset/patellofemoral_r/patellar_flexion_r/accel	/jointset/knee_r/knee_flexion_r/accel	/jointset/knee_r/knee_adduction_r/accel	/jointset/knee_r/knee_rotation_r/accel	/jointset/ankle_r/ankle_angle_r/accel	/jointset/subtalar_r/subtalar_angle_r/accel	gamma_cid13_p0	gamma_cid14_p0	gamma_cid14_p1	gamma_cid14_p2	gamma_cid14_p3	gamma_cid14_p4	gamma_cid14_p5
0.5	0.0445477130258448	0.1060574712955315	0.910151966276096	0.3179663766892088	-0.2391229839120786	-0.1710003579987147	-0.5843704273156997	0.5046686421800003	0.5046686421800063	0.09419478222439027	0.1745268314113018	0.2007900612754331	0.08238529156421585	0.1704307211694829	-0.07268006532773848	-0.08136692911097125	0.3155914155156874	0.00568265565151548	0.1437845187120396	-0.7499254010655989	0.7383260850608375	0.7383260850608337	-0.1721076186052275	-1.276521340338295e-05	0.3044423749613532	0.1024300096892107	-0.07414661872556622	0.01485254440812918	0.01750164893441062	-0.1939441302866884	-0.03686820445220471	-0.03307912389512642	0.1598408145975428	-28.1332008398631	-57.05496711154625	-20.15186970409558	-1.167634983080338	2.590922165938261	-659.0841348699387	45.48815930008337	-0.02860391717596134	0.1075001510452173	-0.0633245741713328	-0.3530525721774898	-0.02515573799523311	-0.2101409163696058	0.7084509424501995	-0.4686362285138999	-0.4686362285139004	0.1793504729669002	-0.01027940771194195	-0.1400856246489956	-0.03029369759729442	-3.323219251278427e-08	-1.634657911479977e-08	2.348711044387627e-07	-2.177114712442963e-07	-1.76836624384143e-08	-2.547853425626205e-08	2.686519576230544e-07
0.51	0.04625024309259586	0.1053361528153791	0.9093352584633484	0.3211043071897116	-0.2390677345520944	-0.1695731669205694	-0.591833111804157	0.51202754428604	0.512027544286045	0.09248351084539184	0.1745265581280796	0.2038270122120644	0.08340748443914366	0.170057040625916	-0.07157279354328212	-0.0819581316815675	0.3119460391434197	0.005368638882851039	0.1416339077664171	-0.7425144577789899	0.7333548834677543	0.7333548834677518	-0.1701350873687868	-3.763441241050604e-05	0.3029107691360758	0.1019980539336817	-0.0763475271060997	0.01617269737209929	0.01754584946057405	-0.1953200689247049	-0.03850667265230312	-0.03247479479803577	0.1625325390776556	-27.94991530886109	-57.6098228807876	-20.05082929810942	-1.110333415223745	2.709476651362598	-660.0611470965504	45.33169553533717	-0.04448990676765077	0.1139627880769514	-0.05454759579259701	-0.3775790940826073	-0.03432683185435672	-0.2205292857381499	0.7719718488107644	-0.52627352639251	-0.5262735263923196	0.2079574818240802	0.002011556418733057	-0.1652595094462131	-0.05121308645599643	-3.199136177104226e-08	-1.519328331362248e-08	2.244029330500241e-07	-2.120363882635909e-07	-1.761907087278571e-08	-2.140349501384036e-08	2.594304524829369e-07
0.52	0.04794848839714658	0.1046262314722575	0.9085131327254371	0.3242043241416246	-0.2390155857969077	-0.1681680835722959	-0.5992187756943397	0.5193337520958112	0.5193337520958159	0.09079231538532685	0.1745261565993491	0.206847534800847	0.08442504444213106	0.1695737687295264	-0.07040063792158394	-0.08245051414371542	0.3080087057979037	0.005062534692094515	0.1393629727376118	-0.7345212814105992	0.7277872258071917	0.7277872258071904	-0.168092434818689	-3.841431486448282e-05	0.3011567053916343	0.101503435301141	-0.07854843548663634	0.01749285033606952	0.01759004998673346	-0.1966960075627222	-0.04014514085240148	-0.03187046570094448	0.1652242635577658	-27.76039168210516	-58.16790861304519	-19.94793499158231	-1.056091181195919	2.817941405673913	-661.0953316230207	45.20672342659715	-0.05052218774047017	0.1204769184935811	-0.04356055248166595	-0.4114439668271606	-0.02357322241365282	-0.2342057330061517	0.8248975588065648	-0.5879274420098043	-0.5879274420098061	0.1933747356983277	-0.005461548401303251	-0.1845772084818138	-0.04282627299963889	-3.09616412156936e-08	-1.386156250342412e-08	2.174688619853857e-07	-2.041064224816296e-07	-1.80820685764171e-08	-1.655315302026185e-08	2.504232634982295e-07
0.53	0.04964132035901732	0.1039283221033404	0.9076865777942046	0.3272636175072151	-0.2389664630475498	-0.1667862336175244	-0.606521601197365	0.5265813585509007	0.5265813585509052	0.08912191434588267	0.1745258331067994	0.2098493876069815	0.08543732468771353	0.1689754118646164	-0.06917360549174462	-0.08284295938845097	0.3038037963317143	0.004761802899359504	0.1369950013905105	-0.7259518178018088	0.7216347185051436	0.7216347185051414	-0.1659700214363829	-2.598953297012552e-05	0.2991725581433771	0.1009378875846007	-0.08074946643308772	0.01879275389199789	0.01763927793103514	-0.1979401383990768	-0.04199626388447636	-0.03128555843676181	0.1678967400818139	-27.56490451443818	-58.79559707263223	-19.86309479990043	-1.001903423451991	3.01719127128176	-662.1039143542529	45.04842253483254	-0.06707632111972801	0.1249572956873541	-0.03446240441710909	-0.4319420974679146	-0.03336958986205974	-0.2399321930203173	0.8867709708239688	-0.6438082959797686	-0.6438082959799182	0.2243542189995922	0.004605316003449686	-0.2115327420939839	-0.06561815596968829	-2.940771525996459e-08	-1.263476815824887e-08	2.042195784883293e-07	-1.971055156132857e-07	-1.775060958905264e-08	-1.281599177456419e-08	2.388838130951452e-07
0.54	0.05132765197518795	0.1032429112368133	0.9068566232317351	0.3302794762459523	-0.2389203569025511	-0.1654284312477154	-0.6137359720225208	0.5337644607486346	0.5337644607486384	0.08747327335616505	0.1745256360269699	0.2128301590888141	0.08644350962913289	0.1682736995895685	-0.06790093744357811	-0.08313044039108873	0.2993217804274016	0.004459213820279082	0.1345534557450818	-0.7168303458366702	0.7148863743359967	0.7148863743359934	-0.163740424873963	-1.31317703300491e-05	0.2969404405312673	0.100284374468522	-0.08295049737954288	0.02009265744792641	0.01768850587532499	-0.1991842692354325	-0.04384738691655139	-0.03070065117257891	0.1705692166058589	-27.36323225121549	-59.42746460664057	-19.77644678818022	-0.9509047854158881	3.207961551662486	-663.183588078385	44.92232001702298	-0.07119326976805547	0.129604042159015	-0.02256770406210333	-0.4668652544518207	-0.02394467968273811	-0.2489205926716302	0.9352992300762102	-0.7070948154295901	-0.7070948154295906	0.2148113717211037	-0.005374952252151316	-0.2341712812523601	-0.06041935290731228	-2.727381737189988e-08	-1.152406266799281e-08	1.839832514490229e-07	-1.911325037131992e-07	-1.654017724143745e-08	-1.031043476056451e-08	2.245427117610908e-07
